<?xml version="1.0" encoding="iso-8859-1"?>
<!-- Generator: Adobe Illustrator 19.0.0, SVG Export Plug-In . SVG Version: 6.00 Build 0)  -->
<svg version="1.1" id="Layer_1" xmlns="http://www.w3.org/2000/svg" xmlns:xlink="http://www.w3.org/1999/xlink" x="0px" y="0px"
	 viewBox="0 0 512.004 512.004" style="enable-background:new 0 0 512.004 512.004;" xml:space="preserve">
<circle style="fill:#7C54B8;" cx="211.213" cy="45.009" r="44.228"/>
<circle style="fill:#FD4DD7;" cx="130.026" cy="80.165" r="44.228"/>
<circle style="fill:#FFDB6C;" cx="71.192" cy="146.185" r="44.228"/>
<circle style="fill:#674799;" cx="44.228" cy="230.458" r="44.228"/>
<circle style="fill:#FD4DD7;" cx="51.986" cy="318.577" r="44.228"/>
<circle style="fill:#FFDB6C;" cx="96.221" cy="395.158" r="44.228"/>
<circle style="fill:#7C54B8;" cx="169.378" cy="445.662" r="44.56"/>
<circle style="fill:#FD4DD7;" cx="255.435" cy="466.929" r="44.228"/>
<g>
	<circle style="fill:#FFDB6C;" cx="341.963" cy="448.423" r="44.228"/>
	<circle style="fill:#FFDB6C;" cx="299.669" cy="45.009" r="44.228"/>
</g>
<circle style="fill:#FD4DD7;" cx="380.844" cy="80.165" r="44.228"/>
<circle style="fill:#7C54B8;" cx="439.678" cy="146.185" r="44.228"/>
<circle style="fill:#FFDB6C;" cx="467.215" cy="231.025" r="44.789"/>
<circle style="fill:#FD4DD7;" cx="456.798" cy="319.831" r="44.591"/>
<circle style="fill:#7C54B8;" cx="414.891" cy="398.329" r="44.228"/>
<g>
	<path style="fill:#674799;" d="M436.048,359.485c3.43,6.285,5.382,13.493,5.382,21.158c0,24.427-19.802,44.228-44.228,44.228
		c-7.664,0-14.873-1.951-21.157-5.382c7.503,13.745,22.085,23.071,38.848,23.071c24.427,0,44.228-19.801,44.228-44.228
		C459.119,381.57,449.794,366.988,436.048,359.485z"/>
	<path style="fill:#674799;" d="M232.501,6.299c3.43,6.285,5.382,13.493,5.382,21.157c0,24.427-19.801,44.228-44.228,44.228
		c-7.664,0-14.873-1.952-21.157-5.382c7.503,13.745,22.085,23.071,38.848,23.071c24.427,0,44.228-19.802,44.228-44.228
		C255.571,28.384,246.246,13.802,232.501,6.299z"/>
</g>
<path style="fill:#E846AA;" d="M151.189,41.318c3.43,6.285,5.382,13.493,5.382,21.157c0,24.427-19.801,44.228-44.228,44.228
	c-7.664,0-14.873-1.951-21.157-5.382c7.503,13.745,22.085,23.071,38.848,23.071c24.427,0,44.228-19.802,44.228-44.228
	C174.259,63.402,164.934,48.819,151.189,41.318z"/>
<path style="fill:#FFB966;" d="M92.62,107.609c3.43,6.285,5.382,13.493,5.382,21.157c0,24.427-19.802,44.228-44.228,44.228
	c-7.664,0-14.873-1.951-21.157-5.382c7.503,13.745,22.085,23.071,38.848,23.071c24.427,0,44.228-19.802,44.228-44.228
	C115.69,129.694,106.365,115.112,92.62,107.609z"/>
<path style="fill:#7C54B8;" d="M0,230.462c0,7.664,1.951,14.873,5.382,21.157c6.285,3.43,13.493,5.382,21.157,5.382
	c24.427,0,44.228-19.801,44.228-44.228c0-7.664-1.951-14.873-5.382-21.157c-6.285-3.43-13.493-5.382-21.157-5.382
	C19.801,186.234,0,206.036,0,230.462z"/>
<path style="fill:#E846AA;" d="M73.146,279.731c3.43,6.285,5.382,13.493,5.382,21.157c0,24.427-19.801,44.228-44.228,44.228
	c-7.664,0-14.873-1.951-21.157-5.382c7.503,13.745,22.085,23.071,38.848,23.071c24.427,0,44.228-19.801,44.228-44.228
	C96.217,301.815,86.892,287.233,73.146,279.731z"/>
<path style="fill:#FFB966;" d="M117.695,356.487c3.43,6.285,5.382,13.493,5.382,21.158c0,24.427-19.801,44.228-44.228,44.228
	c-7.664,0-14.873-1.951-21.157-5.382c7.503,13.745,22.085,23.071,38.848,23.071c24.427,0,44.228-19.801,44.228-44.228
	C140.767,378.571,131.441,363.988,117.695,356.487z"/>
<path style="fill:#674799;" d="M190.779,406.573c3.485,6.352,5.47,13.643,5.47,21.4c0,24.609-19.949,44.56-44.56,44.56
	c-7.757,0-15.047-1.986-21.4-5.47c7.573,13.802,22.236,23.16,39.09,23.16c24.609,0,44.56-19.949,44.56-44.56
	C213.939,428.81,204.581,414.146,190.779,406.573z"/>
<path style="fill:#E846AA;" d="M276.811,428.148c3.43,6.285,5.382,13.493,5.382,21.157c0,24.427-19.801,44.228-44.228,44.228
	c-7.664,0-14.873-1.951-21.157-5.382c7.503,13.745,22.085,23.071,38.848,23.071c24.427,0,44.228-19.801,44.228-44.228
	C299.882,450.232,290.556,435.65,276.811,428.148z"/>
<g>
	<path style="fill:#FFB966;" d="M363.123,409.578c3.43,6.285,5.382,13.493,5.382,21.157c0,24.427-19.801,44.228-44.228,44.228
		c-7.664,0-14.873-1.951-21.157-5.382c7.503,13.745,22.085,23.071,38.848,23.071c24.427,0,44.228-19.802,44.228-44.228
		C386.195,431.662,376.868,417.079,363.123,409.578z"/>
	<path style="fill:#FFB966;" d="M321.221,6.432c3.43,6.285,5.382,13.493,5.382,21.157c0,24.427-19.802,44.228-44.228,44.228
		c-7.664,0-14.873-1.952-21.157-5.382c7.503,13.745,22.085,23.071,38.848,23.071c24.427,0,44.228-19.802,44.228-44.228
		C344.293,28.517,334.966,13.933,321.221,6.432z"/>
</g>
<path style="fill:#E846AA;" d="M402.005,41.318c3.43,6.285,5.382,13.493,5.382,21.157c0,24.427-19.802,44.228-44.228,44.228
	c-7.664,0-14.873-1.951-21.157-5.382c7.503,13.745,22.085,23.071,38.848,23.071c24.427,0,44.228-19.802,44.228-44.228
	C425.077,63.402,415.75,48.819,402.005,41.318z"/>
<path style="fill:#674799;" d="M460.839,107.344c3.43,6.285,5.382,13.493,5.382,21.157c0,24.427-19.801,44.228-44.228,44.228
	c-7.664,0-14.873-1.951-21.157-5.382c7.503,13.745,22.085,23.071,38.848,23.071c24.427,0,44.228-19.802,44.228-44.228
	C483.91,129.428,474.584,114.845,460.839,107.344z"/>
<path style="fill:#FFB966;" d="M488.78,191.765c3.523,6.398,5.531,13.748,5.531,21.569c0,24.737-20.053,44.789-44.789,44.789
	c-7.821,0-15.169-2.009-21.567-5.531c7.621,13.841,22.341,23.221,39.257,23.221c24.737,0,44.789-20.053,44.789-44.789
	C512,214.106,502.62,199.386,488.78,191.765z"/>
<path style="fill:#E846AA;" d="M478.226,280.721c3.49,6.358,5.478,13.657,5.478,21.423c0,24.627-19.964,44.591-44.591,44.591
	c-7.765,0-15.064-1.988-21.423-5.478c7.579,13.807,22.251,23.168,39.112,23.168c24.627,0,44.591-19.964,44.591-44.591
	C501.394,302.972,492.033,288.299,478.226,280.721z"/>
<g>
</g>
<g>
</g>
<g>
</g>
<g>
</g>
<g>
</g>
<g>
</g>
<g>
</g>
<g>
</g>
<g>
</g>
<g>
</g>
<g>
</g>
<g>
</g>
<g>
</g>
<g>
</g>
<g>
</g>
</svg>
